<svg width="17" height="16" viewBox="0 0 17 16" fill="none" xmlns="http://www.w3.org/2000/svg">
<path d="M8.4 16C8.16047 16 7.93078 15.9087 7.75031 15.7401C7.07109 15.1043 6.41813 14.5071 5.84063 13.9802L5.83734 13.9767C4.14422 12.4347 2.68406 11.0999 1.66688 9.78617C0.528281 8.31789 0 6.92689 0 5.40593C0 3.92711 0.4725 2.56422 1.33219 1.56663C2.20172 0.554994 3.39609 0 4.69219 0C5.66344 0 6.54938 0.326674 7.33031 0.976509C7.72406 1.30318 8.08172 1.70362 8.39672 2.1708C8.71172 1.70362 9.06938 1.30318 9.46313 0.976509C10.2506 0.326674 11.1366 0 12.1078 0C13.4039 0 14.5983 0.554994 15.4678 1.56663C16.3275 2.56422 16.8 3.92711 16.8 5.40593C16.8 6.92689 16.2717 8.31789 15.1331 9.78617C14.1159 11.0999 12.6558 12.4347 10.9627 13.9767C10.3852 14.5036 9.72891 15.1008 9.04969 15.7401C8.86922 15.9087 8.63953 16 8.4 16ZM4.69219 1.05379C3.675 1.05379 2.73656 1.48935 2.05734 2.27969C1.365 3.08408 0.984375 4.19407 0.984375 5.40593C0.984375 6.68452 1.42734 7.82964 2.42484 9.11526C3.38625 10.3587 4.82016 11.6654 6.47719 13.1759L6.48047 13.1794C7.06125 13.7098 7.7175 14.3069 8.4 14.9462C9.08906 14.3034 9.74531 13.7063 10.3261 13.1759C11.9831 11.6619 13.4138 10.3587 14.3784 9.11526C15.3727 7.82964 15.8189 6.68452 15.8189 5.40593C15.8189 4.19407 15.4383 3.08408 14.7459 2.27969C14.0634 1.48935 13.125 1.05379 12.1078 1.05379C11.3597 1.05379 10.6739 1.3067 10.0702 1.809C9.53203 2.2551 9.15469 2.82064 8.93484 3.21405C8.82 3.41778 8.62313 3.53721 8.4 3.53721C8.17688 3.53721 7.98 3.41427 7.86516 3.21405C7.64531 2.81712 7.26797 2.2551 6.72985 1.809C6.1261 1.3067 5.44031 1.05379 4.69219 1.05379Z" fill="#333333"/>
</svg>
