<svg width="17" height="16" viewBox="0 0 17 16" fill="none" xmlns="http://www.w3.org/2000/svg">
<path d="M8.4 16C8.16047 16 7.93078 15.9087 7.75031 15.7401C7.07109 15.1043 6.41813 14.5071 5.84063 13.9802L5.83734 13.9767C4.14422 12.4347 2.68406 11.0999 1.66688 9.78617C0.528281 8.31789 0 6.92689 0 5.40593C0 3.92711 0.4725 2.56422 1.33219 1.56663C2.20172 0.554994 3.39609 0 4.69219 0C5.66344 0 6.54938 0.326674 7.33031 0.976509C7.72406 1.30318 8.08172 1.70362 8.39672 2.1708C8.71172 1.70362 9.06938 1.30318 9.46313 0.976509C10.2506 0.326674 11.1366 0 12.1078 0C13.4039 0 14.5983 0.554994 15.4678 1.56663C16.3275 2.56422 16.8 3.92711 16.8 5.40593C16.8 6.92689 16.2717 8.31789 15.1331 9.78617C14.1159 11.0999 12.6558 12.4347 10.9627 13.9767C10.3852 14.5036 9.72891 15.1008 9.04969 15.7401C8.86922 15.9087 8.63953 16 8.4 16Z" fill="#333333"/>
</svg>
